# xmcd
#
# Track frame offsets:
#	150
#	12062
#	20097
#	30905
#	42886
#	55207
#	62326
#	71298
#	78125
#	86174
#	95399
#	100924
#	115059
#	122436
#	129804
#	137384
#	146879
#	155199
#	167411
#	173594
#	179995
#
# Disc length: 2552 seconds
#
# Revision: 1
# Processed by: cddbd v1.5.1PL0 Copyright (c) Steve Scherf et al.
# Submitted via: audiograbber 1.83.01
#
DISCID=0609f615
DTITLE=Нателла Болтянская - Реставрация
DYEAR=2003
DGENRE=Барды
TTITLE0=Реставрация
TTITLE1=Кадавр
TTITLE2=Баллада о солдате и трубадуре
TTITLE3=Едвабне
TTITLE4=Сослагательная
TTITLE5=Богохульный марш
TTITLE6=Романс дежа вю
TTITLE7=Динозаврик
TTITLE8=Предсмертный монолог
TTITLE9=Еврейский погром
TTITLE10=Вильнюс-91
TTITLE11=Посвящение Л. Улицкой
TTITLE12=Ящик Пандоры
TTITLE13=Гимн
TTITLE14=Оркестр "Титаника"
TTITLE15=Песня про музу и кризис жанра
TTITLE16=Шаги Командора
TTITLE17=Гурия
TTITLE18=Дон Кихот ХХ века
TTITLE19=Баллада о царском указе
TTITLE20=Последняя песня дудочки крысолова
EXTD=
EXTT0=
EXTT1=
EXTT2=
EXTT3=
EXTT4=
EXTT5=
EXTT6=
EXTT7=
EXTT8=
EXTT9=
EXTT10=
EXTT11=
EXTT12=
EXTT13=
EXTT14=
EXTT15=
EXTT16=
EXTT17=
EXTT18=
EXTT19=
EXTT20=
PLAYORDER=
